<svg width="320" height="320" viewBox="0 0 320 320" fill="none" xmlns="http://www.w3.org/2000/svg">
<g clip-path="url(#clip0_4176_8181)">
<path d="M67.1122 241.747C60.7132 241.747 43.8652 241.869 40.9816 242.282C37.2232 242.816 34.4044 244.428 35.1496 247.109C35.8948 249.791 38.1628 251.135 46.4329 251.581C56.3959 252.115 84.7864 253.905 100.954 254.084C113.93 254.229 192.322 253.727 205.865 253.905C219.4 254.084 250.99 253.014 255.121 253.014C259.252 253.014 265.271 251.759 264.898 248.721C264.525 245.684 259.447 242.104 250.61 241.569C244 241.164 225.977 241.925 216.581 241.925C211.098 241.925 166.758 242.282 157.921 242.46C150.202 242.614 68.8051 241.747 67.1122 241.747Z" fill="#D2DEFF"/>
<path d="M67.6791 78.0787C69.4044 73.4617 73.8432 70.4161 78.768 70.4647L220.316 70.5781C224.852 70.6105 228.74 73.8181 229.631 78.265L241.959 139.42L282.985 145.697C289.498 146.896 291.531 150.873 290.948 156.713L285.448 200.332C283.658 209.639 275.566 217.496 266.097 217.82L249.929 218.063C247.029 218.16 244.275 215.941 243.02 213.324C240.833 208.748 237.326 201.069 232.085 197.319C221.96 190.086 208.206 190.782 197.846 197.853C190.589 202.802 185.639 210.4 183.323 214.523C182.327 216.297 180.472 217.423 178.43 217.447L136.108 218.282C132.285 218.322 128.948 215.811 127.83 212.166C126.453 207.679 123.326 201.425 116.336 197.327C107.418 192.102 96.8553 193.082 88.8444 197.327C82.4049 200.737 75.7062 207.663 72.45 213.616C71.0001 216.265 70.4655 217.885 67.4442 217.877C59.5953 217.844 48.2067 217.779 43.614 217.893C33.9507 218.128 25.7292 211.632 30.1842 199.984C33.246 191.973 39.3696 189.616 41.022 181.135C41.7996 177.134 67.6791 78.0949 67.6791 78.0949V78.0787Z" fill="#9777C9"/>
<path d="M67.3956 139.412L122.962 139.452L134.86 83.3922C135.873 78.6861 133.386 78.1596 130.106 78.1515L86.3658 78.0867C83.8062 78.0867 81.3924 80.0226 80.793 82.5741L67.3875 139.412H67.3956Z" fill="#D2DEFF"/>
<path d="M229.639 78.1353H222.34C219.165 78.1353 216.427 78.9696 216.606 82.9953L218.056 139.412H241.967L229.639 78.1353Z" fill="#D2DEFF"/>
<path d="M206.003 82.3391L206.205 139.363H134.269L145.269 82.3958C145.844 79.9739 148.007 78.2486 150.502 78.2405L201.524 78.0542C204.043 78.0461 205.938 79.8605 206.003 82.3472V82.3391Z" fill="#D2DEFF"/>
<path d="M104.785 201.377C111.144 201.531 122.038 206.52 121.747 221.165C121.512 233.177 113.031 251.556 93.9475 250.852C74.1673 250.123 73.6894 230.828 75.8035 223.287C78.0067 215.463 85.4668 200.907 104.785 201.377Z" fill="#404040"/>
<path d="M100.541 215.981C104.194 216.192 110.552 218.808 107.134 228.471C104.064 237.154 96.7824 236.393 94.0608 235.186C90.8775 233.769 89.4519 228.973 90.999 223.992C92.5299 219.043 96.4179 215.746 100.541 215.981Z" fill="#951C39"/>
<path d="M218.299 199.959C224.657 200.113 235.552 205.103 235.26 219.748C235.025 231.76 226.544 250.139 207.461 249.434C187.681 248.705 187.203 229.411 189.317 221.87C191.52 214.045 198.98 199.49 218.299 199.959Z" fill="#404040"/>
<path d="M214.062 214.572C217.715 214.782 224.074 217.399 220.656 227.062C217.586 235.745 210.304 234.984 207.582 233.777C204.399 232.359 202.973 227.564 204.521 222.583C206.051 217.633 209.939 214.337 214.062 214.572Z" fill="#951C39"/>
<path d="M41.1841 179.888C41.1841 179.888 43.3711 180.568 47.2834 180.074C52.2325 179.442 59.9599 176.324 61.264 168.92C62.5195 161.776 59.6926 156.908 53.7229 155.49C50.2885 154.68 47.6479 154.745 47.6479 154.745L41.1922 179.888H41.1841Z" fill="#B71000"/>
<path d="M290.826 157.548C290.826 157.548 282.183 157.078 277.161 158.252C272.779 159.281 268.049 161.549 267.425 167.203C266.793 172.857 269.547 175.918 275.59 176.939C281.357 177.911 288.364 177.166 288.364 177.166L290.826 157.548Z" fill="#FDBC43"/>
<path d="M206.213 139.363L206.181 129.611C204.156 132.089 202.05 134.058 200.325 134.584C198.17 135.248 197.028 134.868 196.129 134.349C193.197 132.681 191.042 128.21 189.746 124.281C189.584 123.479 189.406 122.653 189.228 121.794C187.6 114.269 182.804 106.874 174.729 108.211C167.358 109.434 153.653 118.06 143.438 139.363H206.222H206.213Z" fill="#FDBC43"/>
<path d="M218.056 139.412H227.16L231.388 109.32C231.623 107.644 230.457 106.291 228.78 106.291H225.564C223.888 106.291 222.341 107.652 222.106 109.32L218.023 138.383L218.048 139.412H218.056Z" fill="#404040"/>
<path d="M217.602 121.64L218.056 139.412H221.936C224.6 135.985 226.666 132.583 228.108 129.967C229.331 127.74 228.497 125.221 226.301 124.5L217.602 121.64Z" fill="#FDBC43"/>
<path d="M217.594 121.584L226.836 124.654C226.836 124.654 232.539 112.366 225.743 110.292C222.794 109.393 219.781 111.434 217.4 113.872L217.594 121.584Z" fill="#C87F49"/>
<path d="M182.91 72.198C182.91 72.198 187.413 73.0242 187.494 77.2605C187.567 81.4968 189.625 84.6801 190.67 86.859C191.706 89.0379 191.747 90.3096 189.252 91.2087C188.766 91.3869 188.264 91.5327 187.794 91.6542C186.555 91.9782 185.623 92.9502 185.559 94.0113C185.502 94.9428 185.397 96.2469 185.21 97.9641C184.765 102.087 184.854 103.537 182.61 105.959C180.366 108.381 175.895 109.741 172.08 109.166C167.447 108.47 162.133 106.307 161.315 101.609C160.497 96.9111 162.611 83.7648 167.836 78.1515C173.06 72.5382 180.318 71.6229 182.926 72.198H182.91Z" fill="#C87F49"/>
<path d="M185.68 71.7038C188.304 72.0926 189.39 74.717 187.097 75.7619C185.064 76.6934 182.821 75.9806 180.099 77.8841C177.734 79.5365 177.637 82.007 178.73 84.4532C180.204 87.7661 181.29 89.1836 180.123 89.8721C178.949 90.5606 175.571 91.7837 175.336 90.9413C175.101 90.0989 176.017 86.4134 173.433 86.057C170.573 85.6601 170.095 88.0496 170.865 89.4428C171.416 90.4472 173.23 91.7756 173.927 95.7527C174.623 99.7217 174.04 104.42 169.828 108.437C166.183 111.912 160.286 112.925 154.851 111.426C147.44 109.385 148.055 102.662 150.988 98.2718C153.239 94.8941 157.881 92.7152 160.651 88.4384C161.971 86.3972 163.583 83.5298 164.968 80.4437C165.948 78.2648 167.52 76.4504 169.091 75.3326C175.271 70.9181 183.08 71.315 185.704 71.6957L185.68 71.7038Z" fill="#404040"/>
<path d="M164.863 80.5167C164.782 80.7597 176.713 80.0307 180.86 80.0307C185.98 80.0307 196.137 79.6662 197.765 79.6014C201.078 79.4799 202.39 79.1154 202.674 77.7141C202.941 76.3776 201.556 75.5271 199.871 75.5838C198.186 75.6405 196.088 75.4461 194.412 75.3975C192.265 75.3327 191.488 74.1177 190.775 72.846C190.062 71.5743 189.09 68.0184 186.198 66.7062C183.388 65.4264 179.637 65.5479 175.895 67.5567C171.554 69.8814 166.532 75.4623 164.863 80.5086V80.5167Z" fill="#FF3008"/>
<path d="M113.371 102.362L109.532 101.204C109.532 101.204 110.779 97.0651 111.662 92.6587C112.424 88.8679 111.84 86.9806 111.217 86.0653C110.787 85.4335 110.172 85.0447 109.394 84.907C106.648 84.4129 102.695 84.6235 100.209 92.0836C99.3421 94.6918 97.2199 101.156 97.2199 101.156L93.4048 99.9001C93.4048 99.9001 95.527 93.4282 96.4018 90.8119C99.6013 81.2215 105.62 80.1523 110.099 80.9623C111.954 81.2944 113.485 82.2826 114.53 83.8135C116.06 86.0653 116.417 89.3053 115.591 93.4525C114.667 98.0533 113.42 102.2 113.371 102.371V102.362Z" fill="#404040"/>
<path d="M91.9547 96.6681C87.2486 96.6681 85.4504 96.7653 83.7008 104.177C82.1051 110.948 75.3254 139.533 75.3254 139.533L115.68 139.574C115.68 139.574 123.439 104.169 123.585 102.435C123.82 99.7218 124.63 96.3603 118.069 96.3279C112.099 96.2955 95.9885 96.6762 91.9466 96.6681H91.9547Z" fill="#FF3008"/>
<path d="M110.326 116.4C109.613 114.602 107.879 113.516 105.846 113.532L90.4401 113.646C90.1485 113.646 89.8812 113.889 89.8407 114.18C89.8245 114.318 89.8569 114.456 89.946 114.553L92.8539 117.898C93.1131 118.19 93.4938 118.36 93.915 118.352L104.777 118.271C105.433 118.271 105.968 118.7 106.016 119.34C106.089 120.093 105.522 120.847 104.745 121.025C104.639 121.049 104.534 121.065 104.429 121.065L96.9363 121.122C96.6447 121.122 96.3774 121.365 96.3369 121.657C96.3207 121.794 96.3531 121.932 96.4422 122.029L99.3501 125.375C99.6093 125.674 99.99 125.836 100.411 125.836L103.797 125.812C108.203 125.78 112.164 121.049 110.326 116.4Z" fill="white"/>
</g>
<defs>
<clipPath id="clip0_4176_8181">
<rect width="262.108" height="188.236" fill="white" transform="translate(28.9449 65.88)"/>
</clipPath>
</defs>
</svg>
