<svg width="320" height="320" viewBox="0 0 320 320" fill="none" xmlns="http://www.w3.org/2000/svg">
<g clip-path="url(#clip0_4176_6700)">
<path d="M42.6865 86.4918H277.314V256.396C277.314 260.63 273.88 264.065 269.646 264.065H50.3547C46.1207 264.065 42.6865 260.63 42.6865 256.396V86.4918Z" fill="#9777C9"/>
<path d="M72.1142 159.085H119.796C122.915 159.085 125.452 161.623 125.452 164.742V264.048H66.458V164.742C66.458 161.623 68.9952 159.085 72.1142 159.085Z" fill="#951C39"/>
<path d="M112.533 171.19H79.6943C78.36 171.19 77.2783 172.271 77.2783 173.606V234.677C77.2783 236.011 78.36 237.093 79.6943 237.093H112.533C113.867 237.093 114.949 236.011 114.949 234.677V173.606C114.949 172.271 113.867 171.19 112.533 171.19Z" fill="#D2DEFF"/>
<path d="M281.605 69.9434H38.3954C33.7588 69.9434 30 73.7021 30 78.3388V84.7142C30 89.3508 33.7588 93.1096 38.3954 93.1096H281.605C286.241 93.1096 290 89.3508 290 84.7142V78.3388C290 73.7021 286.241 69.9434 281.605 69.9434Z" fill="#951C39"/>
<path d="M248.249 160.071H146.849C143.899 160.071 141.508 162.462 141.508 165.412V232.164C141.508 235.113 143.899 237.505 146.849 237.505H248.249C251.198 237.505 253.59 235.113 253.59 232.164V165.412C253.59 162.462 251.198 160.071 248.249 160.071Z" fill="#D2DEFF"/>
<path d="M112.524 171.19H99.3368C99.2964 174.721 99.5954 179.86 98.0602 185.936C96.8481 190.744 93.4786 196.836 86.3195 201.014C82.1177 203.462 78.4008 206.767 77.2695 209.894V234.677C77.2695 235.945 78.2553 236.979 79.4997 237.076H93.4382C94.0927 224.673 100.525 221.595 107.449 215.429C109.882 213.264 114.794 211.131 114.94 209.329V173.606C114.94 172.272 113.857 171.19 112.524 171.19Z" fill="white"/>
<path d="M63.8652 167.659C63.8652 167.659 66.6045 184.797 85.2861 184.797C100.76 184.797 106.174 167.949 106.174 167.949L63.8652 167.659Z" fill="#B71000"/>
<path d="M103.62 167.659C103.62 167.659 106.359 184.797 125.041 184.797C140.515 184.797 145.929 167.949 145.929 167.949L103.62 167.659Z" fill="#B71000"/>
<path d="M142.147 167.659C142.147 167.659 144.886 184.797 163.567 184.797C179.041 184.797 184.455 167.949 184.455 167.949L142.147 167.659Z" fill="#B71000"/>
<path d="M180.674 167.659C180.674 167.659 183.413 184.797 202.095 184.797C217.569 184.797 222.982 167.949 222.982 167.949L180.674 167.659Z" fill="#B71000"/>
<path d="M218.028 167.659C218.028 167.659 220.768 184.797 239.449 184.797C254.923 184.797 260.337 167.949 260.337 167.949L218.028 167.659Z" fill="#B71000"/>
<path d="M70.6035 129.528H253.647C257.469 129.528 260.572 132.63 260.572 136.452V167.869H63.6787V136.452C63.6787 132.63 66.7815 129.528 70.6035 129.528Z" fill="#951C39"/>
<path d="M121.089 211.381H104.468C103.991 211.381 103.604 211.768 103.604 212.246V217.861C103.604 218.339 103.991 218.726 104.468 218.726H121.089C121.567 218.726 121.954 218.339 121.954 217.861V212.246C121.954 211.768 121.567 211.381 121.089 211.381Z" fill="#D6D6D6"/>
<path d="M184.124 218.637H213.391" stroke="white" stroke-width="9" stroke-miterlimit="10"/>
<path d="M175.858 208.383C180.609 203.333 188.35 199.075 198.547 199.075C208.365 199.075 215.799 202.8 220.792 207.721" stroke="white" stroke-width="9" stroke-miterlimit="10"/>
</g>
<defs>
<clipPath id="clip0_4176_6700">
<rect width="260" height="194.113" fill="white" transform="translate(30 69.9434)"/>
</clipPath>
</defs>
</svg>
