<svg width="320" height="320" viewBox="0 0 320 320" fill="none" xmlns="http://www.w3.org/2000/svg">
<g clip-path="url(#clip0_4176_6549)">
<path d="M274.21 207.91H73.3701C67.0101 207.91 62.3901 202.85 63.0601 196.61L75.4101 81.3C76.0801 75.06 81.7801 70 88.1401 70H288.98C295.34 70 299.96 75.06 299.29 81.3L286.93 196.61C286.26 202.85 280.56 207.91 274.2 207.91H274.21Z" fill="#A7D87C"/>
<path d="M247.7 188.3C248.9 182.31 253.03 171.18 266.66 169.21C268.68 168.92 270.31 167.13 270.52 165.12L276.04 112.61C276.24 110.67 275.09 109.03 273.26 108.55C268.53 107.33 260.29 103.42 260.07 91.37C260.03 89.33 258.39 87.83 256.33 87.83H121.1C119.1 87.83 117.27 89.22 116.66 91.18C114.99 96.56 109.91 106.48 94.33 108.31C92.26 108.55 90.58 110.38 90.36 112.43L84.71 166.22C84.48 168.42 85.98 170.3 88.16 170.39C94.6 170.67 106.51 173.44 106.73 188.35C106.76 190.43 108.38 191.99 110.47 191.99H243.16C245.28 191.99 247.27 190.41 247.7 188.3Z" fill="#00AB42"/>
<path d="M117.95 129.46C123.27 129.33 130.15 133.59 127.53 142.47C125.19 150.39 117.15 151.22 113.47 150.35C109.79 149.47 104.86 145.5 105.97 138.72C106.83 133.47 112.11 129.6 117.95 129.47V129.46Z" fill="#A7D87C"/>
<path d="M237.88 132.47C243.2 132.34 250.08 136.6 247.46 145.48C245.12 153.4 237.08 154.23 233.4 153.36C229.72 152.48 224.79 148.51 225.9 141.73C226.76 136.48 232.04 132.61 237.88 132.48V132.47Z" fill="#A7D87C"/>
<path d="M255.56 116.86L270.59 208.22H246.67L255.56 116.86Z" fill="#404040"/>
<path d="M231.22 249.04H30.3799C24.0199 249.04 19.3999 243.98 20.0699 237.74L32.4199 122.43C33.0899 116.19 38.7899 111.13 45.1499 111.13H245.99C252.35 111.13 256.97 116.19 256.3 122.43L243.94 237.74C243.27 243.98 237.57 249.04 231.21 249.04H231.22Z" fill="#A7D87C"/>
<path d="M204.71 229.43C205.91 223.44 210.04 212.31 223.67 210.34C225.69 210.05 227.32 208.26 227.53 206.25L233.05 153.74C233.25 151.8 232.1 150.16 230.27 149.68C225.54 148.46 217.3 144.55 217.08 132.5C217.04 130.46 215.4 128.96 213.34 128.96H78.1099C76.1099 128.96 74.2799 130.35 73.6699 132.31C71.9999 137.69 66.9199 147.61 51.3399 149.44C49.2699 149.68 47.5899 151.51 47.3699 153.56L41.7199 207.35C41.4899 209.55 42.9899 211.43 45.1699 211.52C51.6099 211.8 63.5199 214.57 63.7399 229.48C63.7699 231.56 65.3899 233.12 67.4799 233.12H200.17C202.29 233.12 204.28 231.54 204.71 229.43Z" fill="#00AD2E"/>
<path d="M137.27 146.26C155.53 145.83 179.1 160.42 170.12 190.87C162.11 218.03 134.5 220.9 121.89 217.89C109.27 214.89 92.3399 201.24 96.1699 178C99.1399 159.98 117.24 146.73 137.27 146.26Z" fill="#A7D87C"/>
<path d="M74.96 170.59C80.28 170.46 87.16 174.72 84.54 183.6C82.2 191.52 74.16 192.35 70.48 191.48C66.8 190.6 61.87 186.63 62.98 179.85C63.84 174.6 69.12 170.73 74.96 170.6V170.59Z" fill="#A7D87C"/>
<path d="M194.88 173.6C200.2 173.47 207.08 177.73 204.46 186.61C202.12 194.53 194.08 195.36 190.4 194.49C186.72 193.61 181.79 189.64 182.9 182.86C183.76 177.61 189.04 173.74 194.88 173.61V173.6Z" fill="#A7D87C"/>
</g>
<defs>
<clipPath id="clip0_4176_6549">
<rect width="279.37" height="179.04" fill="white" transform="translate(20 70)"/>
</clipPath>
</defs>
</svg>
